<svg width="40" height="41" viewBox="0 0 40 41" fill="none" xmlns="http://www.w3.org/2000/svg">
<path d="M5.82001 13.6751L7.96335 31.9001H32.0367L34.18 13.6751L27.4967 18.1301L20 7.63506L12.5033 18.1301L5.82001 13.6751ZM4.66835 8.90006L11.6667 13.5667L18.6433 3.80006C18.7975 3.58401 19.0011 3.4079 19.237 3.2864C19.473 3.16489 19.7346 3.1015 20 3.1015C20.2654 3.1015 20.527 3.16489 20.763 3.2864C20.999 3.4079 21.2025 3.58401 21.3567 3.80006L28.3333 13.5667L35.3333 8.90006C35.5983 8.7238 35.9081 8.62707 36.2263 8.62129C36.5444 8.6155 36.8576 8.70092 37.1287 8.86743C37.3999 9.03394 37.6177 9.2746 37.7564 9.56095C37.8952 9.84731 37.949 10.1674 37.9117 10.4834L35.1733 33.7617C35.1256 34.1671 34.9307 34.5409 34.6256 34.8122C34.3206 35.0835 33.9266 35.2333 33.5183 35.2334H6.48168C6.07346 35.2333 5.67945 35.0835 5.37439 34.8122C5.06933 34.5409 4.87444 34.1671 4.82668 33.7617L2.08835 10.4817C2.05135 10.1659 2.10549 9.84601 2.24438 9.55992C2.38327 9.27383 2.60112 9.03345 2.8722 8.86716C3.14328 8.70087 3.45628 8.6156 3.77424 8.62143C4.09221 8.62726 4.40188 8.72394 4.66668 8.90006H4.66835ZM20 25.2334C19.116 25.2334 18.2681 24.8822 17.643 24.2571C17.0179 23.632 16.6667 22.7841 16.6667 21.9001C16.6667 21.016 17.0179 20.1682 17.643 19.543C18.2681 18.9179 19.116 18.5667 20 18.5667C20.8841 18.5667 21.7319 18.9179 22.357 19.543C22.9822 20.1682 23.3333 21.016 23.3333 21.9001C23.3333 22.7841 22.9822 23.632 22.357 24.2571C21.7319 24.8822 20.8841 25.2334 20 25.2334Z" fill="white"/>
</svg>
