<svg width="128" height="24" viewBox="0 0 128 24" fill="none" xmlns="http://www.w3.org/2000/svg">
<path d="M0 4.05682V0H19.1136V4.05682H11.9886V23.2727H7.125V4.05682H0Z" fill="#043A53"/>
<path d="M20.358 23.2727V5.81818H25.0511V8.86364H25.233C25.5511 7.7803 26.0852 6.96212 26.8352 6.40909C27.5852 5.84849 28.4489 5.56818 29.4261 5.56818C29.6686 5.56818 29.9299 5.58333 30.2102 5.61364C30.4905 5.64394 30.7367 5.68561 30.9489 5.73864V10.0341C30.7216 9.96591 30.4072 9.9053 30.0057 9.85227C29.6042 9.79924 29.2367 9.77273 28.9034 9.77273C28.1913 9.77273 27.5549 9.92803 26.9943 10.2386C26.4413 10.5417 26.0019 10.9659 25.6761 11.5114C25.358 12.0568 25.1989 12.6856 25.1989 13.3977V23.2727H20.358Z" fill="#043A53"/>
<path d="M44.6449 15.8409V5.81818H49.4858V23.2727H44.8381V20.1023H44.6562C44.2623 21.125 43.607 21.947 42.6903 22.5682C41.7812 23.1894 40.6714 23.5 39.3608 23.5C38.1941 23.5 37.1676 23.2348 36.2812 22.7045C35.3949 22.1742 34.7017 21.4205 34.2017 20.4432C33.7093 19.4659 33.4593 18.2955 33.4517 16.9318V5.81818H38.2926V16.0682C38.3002 17.0985 38.5767 17.9129 39.1222 18.5114C39.6676 19.1098 40.3987 19.4091 41.3153 19.4091C41.8987 19.4091 42.4441 19.2765 42.9517 19.0114C43.4593 18.7386 43.8684 18.3371 44.179 17.8068C44.4972 17.2765 44.6525 16.6212 44.6449 15.8409Z" fill="#043A53"/>
<path d="M67.8807 10.7955L63.4489 11.0682C63.3731 10.6894 63.2102 10.3485 62.9602 10.0455C62.7102 9.73485 62.3807 9.48864 61.9716 9.30682C61.5701 9.11742 61.089 9.02273 60.5284 9.02273C59.7784 9.02273 59.1458 9.18182 58.6307 9.5C58.1155 9.81061 57.858 10.2273 57.858 10.75C57.858 11.1667 58.0246 11.5189 58.358 11.8068C58.6913 12.0947 59.2633 12.3258 60.0739 12.5L63.233 13.1364C64.9299 13.4848 66.1951 14.0455 67.0284 14.8182C67.8617 15.5909 68.2784 16.6061 68.2784 17.8636C68.2784 19.0076 67.9413 20.0114 67.267 20.875C66.6004 21.7386 65.6837 22.4129 64.517 22.8977C63.358 23.375 62.0208 23.6136 60.5057 23.6136C58.1951 23.6136 56.3542 23.1326 54.983 22.1705C53.6193 21.2008 52.8201 19.8826 52.5852 18.2159L57.3466 17.9659C57.4905 18.6705 57.839 19.2083 58.392 19.5795C58.9451 19.9432 59.6534 20.125 60.517 20.125C61.3655 20.125 62.0473 19.9621 62.5625 19.6364C63.0852 19.303 63.3504 18.875 63.358 18.3523C63.3504 17.9129 63.1648 17.553 62.8011 17.2727C62.4375 16.9848 61.8769 16.7652 61.1193 16.6136L58.0966 16.0114C56.392 15.6705 55.1231 15.0795 54.2898 14.2386C53.464 13.3977 53.0511 12.3258 53.0511 11.0227C53.0511 9.90152 53.3542 8.93561 53.9602 8.125C54.5739 7.31439 55.4337 6.68939 56.5398 6.25C57.6534 5.81061 58.9564 5.59091 60.4489 5.59091C62.6534 5.59091 64.3883 6.05682 65.6534 6.98864C66.9261 7.92045 67.6686 9.18939 67.8807 10.7955Z" fill="#043A53"/>
<path d="M80.6108 5.81818V9.45455H70.0994V5.81818H80.6108ZM72.4858 1.63636H77.3267V17.9091C77.3267 18.3561 77.3949 18.7045 77.5312 18.9545C77.6676 19.197 77.857 19.3674 78.0994 19.4659C78.3494 19.5644 78.6373 19.6136 78.9631 19.6136C79.1903 19.6136 79.4176 19.5947 79.6449 19.5568C79.8722 19.5114 80.0464 19.4773 80.1676 19.4545L80.929 23.0568C80.6866 23.1326 80.3456 23.2197 79.9062 23.3182C79.4669 23.4242 78.9328 23.4886 78.304 23.5114C77.1373 23.5568 76.1146 23.4015 75.2358 23.0455C74.3646 22.6894 73.6866 22.1364 73.2017 21.3864C72.7169 20.6364 72.4782 19.6894 72.4858 18.5455V1.63636Z" fill="#043A53"/>
<path d="M91.4631 23.6136C89.6752 23.6136 88.1373 23.2348 86.8494 22.4773C85.5691 21.7121 84.5843 20.6515 83.8949 19.2955C83.2131 17.9394 82.8722 16.3788 82.8722 14.6136C82.8722 12.8258 83.2169 11.2576 83.9062 9.90909C84.6032 8.55303 85.5919 7.49621 86.8722 6.73864C88.1525 5.97349 89.6752 5.59091 91.4403 5.59091C92.9631 5.59091 94.2964 5.86742 95.4403 6.42045C96.5843 6.97348 97.4896 7.75 98.1562 8.75C98.8229 9.75 99.1903 10.9242 99.2585 12.2727H94.6903C94.5616 11.4015 94.2206 10.7008 93.6676 10.1705C93.1222 9.63258 92.4062 9.36364 91.5199 9.36364C90.7699 9.36364 90.1146 9.56818 89.554 9.97727C89.0009 10.3788 88.5691 10.9659 88.2585 11.7386C87.9479 12.5114 87.7926 13.447 87.7926 14.5455C87.7926 15.6591 87.9441 16.6061 88.2472 17.3864C88.5578 18.1667 88.9934 18.7614 89.554 19.1705C90.1146 19.5795 90.7699 19.7841 91.5199 19.7841C92.0729 19.7841 92.5691 19.6705 93.0085 19.4432C93.4555 19.2159 93.8229 18.8864 94.1108 18.4545C94.4062 18.0152 94.5994 17.4886 94.6903 16.875H99.2585C99.1828 18.2083 98.8191 19.3826 98.1676 20.3977C97.5237 21.4053 96.6335 22.1932 95.4972 22.7614C94.3608 23.3295 93.0161 23.6136 91.4631 23.6136Z" fill="#043A53"/>
<path d="M110.244 23.6136C108.479 23.6136 106.953 23.2386 105.665 22.4886C104.384 21.7311 103.396 20.678 102.699 19.3295C102.002 17.9735 101.653 16.4015 101.653 14.6136C101.653 12.8106 102.002 11.2348 102.699 9.88636C103.396 8.5303 104.384 7.47727 105.665 6.72727C106.953 5.9697 108.479 5.59091 110.244 5.59091C112.009 5.59091 113.532 5.9697 114.812 6.72727C116.1 7.47727 117.093 8.5303 117.79 9.88636C118.487 11.2348 118.835 12.8106 118.835 14.6136C118.835 16.4015 118.487 17.9735 117.79 19.3295C117.093 20.678 116.1 21.7311 114.812 22.4886C113.532 23.2386 112.009 23.6136 110.244 23.6136ZM110.267 19.8636C111.07 19.8636 111.741 19.6364 112.278 19.1818C112.816 18.7197 113.222 18.0909 113.494 17.2955C113.775 16.5 113.915 15.5947 113.915 14.5795C113.915 13.5644 113.775 12.6591 113.494 11.8636C113.222 11.0682 112.816 10.4394 112.278 9.97727C111.741 9.51515 111.07 9.28409 110.267 9.28409C109.456 9.28409 108.775 9.51515 108.222 9.97727C107.676 10.4394 107.263 11.0682 106.983 11.8636C106.71 12.6591 106.574 13.5644 106.574 14.5795C106.574 15.5947 106.71 16.5 106.983 17.2955C107.263 18.0909 107.676 18.7197 108.222 19.1818C108.775 19.6364 109.456 19.8636 110.267 19.8636Z" fill="#043A53"/>
<path d="M124.812 23.5682C124.062 23.5682 123.419 23.303 122.881 22.7727C122.35 22.2348 122.085 21.5909 122.085 20.8409C122.085 20.0985 122.35 19.4621 122.881 18.9318C123.419 18.4015 124.062 18.1364 124.812 18.1364C125.54 18.1364 126.176 18.4015 126.722 18.9318C127.267 19.4621 127.54 20.0985 127.54 20.8409C127.54 21.3409 127.411 21.7992 127.153 22.2159C126.903 22.625 126.574 22.9545 126.165 23.2045C125.756 23.447 125.305 23.5682 124.812 23.5682Z" fill="#043A53"/>
</svg>
